<svg height="512" viewBox="0 0 512 512" width="512" xmlns="http://www.w3.org/2000/svg"><g><g fill="#57a4ff"><g><path d="m432 416v80h-312a40 40 0 0 1 0-80z"/><path d="m136 16v400h-16a40 40 0 0 0 -40 40v-400a40 40 0 0 1 40-40z"/><path d="m320 128h24v32h-24v24h-32v-24h-24v-32h24v-24h32z"/><path d="m336 384h64v-48h-64zm64-240a96 96 0 1 0 -96 96 96 96 0 0 0 96-96zm-96 72a72 72 0 1 1 72-72 72.006 72.006 0 0 1 -72 72z"/><path d="m336 336h64v48h-64z"/></g><path d="m320 128h24v32h-24v24h-32v-24h-24v-32h24v-24h32z"/><path d="m304 48a96 96 0 1 0 96 96 96 96 0 0 0 -96-96zm0 168a72 72 0 1 1 72-72 72.006 72.006 0 0 1 -72 72z"/><path d="m344 128v32h-24v24h-32v-24h-24v-32h24v-24h32v24z"/><path d="m344 128v32h-24v24h-32v-24h-24v-32h24v-24h32v24z"/></g><g fill="#004fac"><path d="m432 8h-312a48.051 48.051 0 0 0 -48 48v400a48.051 48.051 0 0 0 48 48h312a8 8 0 0 0 8-8v-480a8 8 0 0 0 -8-8zm-344 48a32.036 32.036 0 0 1 32-32h8v384h-8a47.8 47.8 0 0 0 -32 12.26zm336 432h-304a32 32 0 0 1 0-64h304zm0-80h-280v-384h280z"/><path d="m360 448h-224a8 8 0 0 0 0 16h224a8 8 0 0 0 0-16z"/><path d="m400 448h-16a8 8 0 0 0 0 16h16a8 8 0 0 0 0-16z"/><path d="m400 328h-64a8 8 0 0 0 -8 8v48a8 8 0 0 0 8 8h64a8 8 0 0 0 8-8v-48a8 8 0 0 0 -8-8zm-8 48h-48v-32h48z"/><path d="m312 328h-96a8 8 0 0 0 0 16h96a8 8 0 0 0 0-16z"/><path d="m312 352h-96a8 8 0 0 0 0 16h96a8 8 0 0 0 0-16z"/><path d="m312 376h-48a8 8 0 0 0 0 16h48a8 8 0 0 0 0-16z"/><path d="m264 168h16v16a8 8 0 0 0 8 8h32a8 8 0 0 0 8-8v-16h16a8 8 0 0 0 8-8v-32a8 8 0 0 0 -8-8h-16v-16a8 8 0 0 0 -8-8h-32a8 8 0 0 0 -8 8v16h-16a8 8 0 0 0 -8 8v32a8 8 0 0 0 8 8zm8-32h16a8 8 0 0 0 8-8v-16h16v16a8 8 0 0 0 8 8h16v16h-16a8 8 0 0 0 -8 8v16h-16v-16a8 8 0 0 0 -8-8h-16z"/><path d="m304 224a80 80 0 1 0 -80-80 80.091 80.091 0 0 0 80 80zm0-144a64 64 0 1 1 -64 64 64.072 64.072 0 0 1 64-64z"/><path d="m304 248a104 104 0 1 0 -104-104 104.118 104.118 0 0 0 104 104zm0-192a88 88 0 1 1 -88 88 88.1 88.1 0 0 1 88-88z"/></g></g></svg>