<svg id="Capa_1" enable-background="new 0 0 512.004 512.004" height="512" viewBox="0 0 512.004 512.004" width="512" xmlns="http://www.w3.org/2000/svg"><g><path d="m406.002 240c8.284 0 15-6.716 15-15 0-90.981-74.019-165-165-165s-165 74.019-165 165c0 8.284 6.716 15 15 15s15-6.716 15-15c0-74.439 60.561-135 135-135s135 60.561 135 135c0 8.284 6.716 15 15 15z"/><path d="m256.002 120c-57.897 0-105 47.103-105 105 0 8.284 6.716 15 15 15s15-6.716 15-15c0-41.355 33.645-75 75-75s75 33.645 75 75c0 8.284 6.716 15 15 15s15-6.716 15-15c0-57.897-47.103-105-105-105z"/><path d="m466.002 240c8.284 0 15-6.716 15-15 0-124.065-100.935-225-225-225s-225 100.935-225 225c0 8.284 6.716 15 15 15s15-6.716 15-15c0-107.523 87.477-195 195-195s195 87.477 195 195c0 8.284 6.716 15 15 15z"/><path d="m151.943 491.771c-2.888 7.765 1.066 16.4 8.831 19.288s16.4-1.066 19.288-8.831l7.894-21.228h136.092l7.895 21.229c2.893 7.78 11.538 11.714 19.288 8.831 7.765-2.888 11.718-11.523 8.831-19.288-.165-.457-16.224-43.626-84.2-226.404 14.879-7.35 25.141-22.68 25.141-40.367 0-24.813-20.187-45-45-45s-45 20.187-45 45c0 17.688 10.262 33.018 25.141 40.367-17.054 45.852-70.695 190.088-84.201 226.403zm47.17-40.771 11.157-30h91.464l11.157 30zm33.471-90h46.836l11.157 30h-69.15zm11.157-30 12.261-32.968 12.261 32.968zm12.261-121c8.271 0 15 6.729 15 15s-6.729 15-15 15-15-6.729-15-15 6.729-15 15-15z"/></g></svg>